<svg viewBox="0 0 100 100" xmlns="http://www.w3.org/2000/svg"><g fill="#fff5e5"><path d="m52.32 83h-2.52a2 2 0 0 0 0 4h2.45v-4z"/><path d="m83.8 51a4 4 0 0 0 -4-4h-4v24h3.73.37a4 4 0 0 0 3.9-4z"/><path d="m19.74 51a4 4 0 0 1 4-4h4v24h-3.74-.37a4 4 0 0 1 -3.89-4z"/></g><path d="m83.83 44.12v-3.12a31.92 31.92 0 0 0 -63.83 0v3a8 8 0 0 0 -4.25 7v16a8 8 0 0 0 8 8h6a2 2 0 0 0 2-2v-28a2 2 0 0 0 -2-2h-5.75v-2a27.92 27.92 0 0 1 55.84 0v2h-6.1a2 2 0 0 0 -2 2v28a2 2 0 0 0 2 2h2.69a10.59 10.59 0 0 1 -1.24 1.62c-2.93 3.08-8.09 5.23-15.93 6a6 6 0 0 0 -5.52-3.62h-4a6 6 0 1 0 0 12h4a6 6 0 0 0 5.75-4.37c8.85-.88 14.95-3.41 18.6-7.25a14 14 0 0 0 2.91-4.55 8 8 0 0 0 6.74-7.83v-16a8 8 0 0 0 -3.91-6.88zm-56.09 2.88v24h-4a4 4 0 0 1 -4-4v-16a4 4 0 0 1 4-4zm20 38a2 2 0 0 1 2-2h2.46v4h-2.46a2 2 0 0 1 -2-2zm6 2h-1.47 1.7a1.89 1.89 0 0 1 -.23 0zm30-20a4 4 0 0 1 -3.91 4h-.31-3.78v-24h4a4 4 0 0 1 4 4z" fill="#3e3e52" fill-rule="evenodd"/></svg>