<svg viewBox="0 0 100 100" xmlns="http://www.w3.org/2000/svg"><path d="m9.66 44.6a156.28 156.28 0 0 0 30.61 25.21 156.47 156.47 0 0 0 29.48 14.49 53.34 53.34 0 0 1 -25 3.17 52.58 52.58 0 0 1 -15.19-4.19 47.68 47.68 0 0 1 -13.13-14.19 48.26 48.26 0 0 1 -6.77-24.49z" fill="#e9f0ff"/><path d="m14.21 30.73c3.47 5.35 6.55 8.48 11.54 13.12 18.86 17.52 43.07 28.33 54.75 31.08 1.25-2.29 11.29-21.46 2.08-41.05a43.37 43.37 0 0 0 -16.89-18.44c-3-1.22-17.43-6.76-33.18 0a42.3 42.3 0 0 0 -18.3 15.29z" fill="#e9f0ff"/><path d="m16.85 34.46a36.19 36.19 0 0 1 5.26-8 46.35 46.35 0 0 0 7.46 4.43 45.29 45.29 0 0 0 -3.82 13q1.74 1.6 3.68 3.26a41.51 41.51 0 0 1 3.82-14.75 43.51 43.51 0 0 0 12.94 2.6h1.06v13h-16.77c1.59 1.32 3.26 2.66 5 4h11.77v8.09q2 1.21 4 2.38v-10.47h18a39.17 39.17 0 0 1 -4.37 16.2 45.72 45.72 0 0 0 -6.81-2.09 134.22 134.22 0 0 0 15.49 6.68 46.53 46.53 0 0 0 -5-3 42.92 42.92 0 0 0 4.73-17.73v-.06h11.9a35.77 35.77 0 0 1 -8.9 21.7c1.53.49 3 .9 4.25 1.23a40 40 0 1 0 -66.29-44.2 34.51 34.51 0 0 0 2.6 3.73zm68.3 13.54h-12a45.3 45.3 0 0 0 -4.54-17.87 46.22 46.22 0 0 0 7.14-4.41 35.73 35.73 0 0 1 9.4 22.28zm-12.3-25.12a42.48 42.48 0 0 1 -6.14 3.74 46.32 46.32 0 0 0 -10.19-11.88 35.69 35.69 0 0 1 16.33 8.14zm-21.6-7.1a42.25 42.25 0 0 1 11.75 12.46 41.54 41.54 0 0 1 -11.76 2.63zm0 19.12a45.81 45.81 0 0 0 13.75-3.14 41.61 41.61 0 0 1 4.17 16.24h-17.92zm-4-3.92h-.88a39.44 39.44 0 0 1 -11.24-2.17 42.6 42.6 0 0 1 12.12-13zm-5.25-16.24a46.73 46.73 0 0 0 -10.63 12.54 42.35 42.35 0 0 1 -6.43-3.75 35.83 35.83 0 0 1 17.06-8.79zm14.24 70.57a55.88 55.88 0 0 0 4.65-4.56c-1.31-.57-2.57-1.15-3.81-1.74a48.92 48.92 0 0 1 -5.83 5.2v-8.08l-.65-.33c-1.07-.56-2.19-1.17-3.35-1.82v10.23a48.93 48.93 0 0 1 -12-13.07 40.75 40.75 0 0 1 5-1.33c-1.52-1-3-2-4.58-3-.8.24-1.6.47-2.38.76-.55-1.11-1.06-2.27-1.52-3.47-1.79-1.29-3.59-2.62-5.36-4a44.2 44.2 0 0 0 3.2 9 47 47 0 0 0 -7.52 4.45 35.8 35.8 0 0 1 -8.73-21.55h3.48a93.4 93.4 0 0 1 -7.18-7.4 39.91 39.91 0 0 0 60.09 39.7q-2.49-.89-5-1.88a35.68 35.68 0 0 1 -8.51 2.89zm-31.3-8.84a42.7 42.7 0 0 1 6.59-3.83 52.69 52.69 0 0 0 10.74 12.67 36 36 0 0 1 -17.33-8.84zm69.17 4.79c-1.41 1.92-4 2.68-7.17 2.68-11.66.06-31.68-10.22-34.49-11.68-23-12-52.79-37.06-47-48.94 1.43-2.9 4.68-4.63 9.93-5.3a2 2 0 0 1 2.24 1.72 2 2 0 0 1 -1.71 2.26c-2.58.34-5.87 1.14-6.84 3.11-3.41 6.94 17.93 29.34 45.24 43.6 17.26 9 34 13.67 36.58 10.18.39-.54 1-2.35-1.58-7.51a2 2 0 0 1 3.57-1.8c2.69 5.32 3.12 9.14 1.23 11.68z" fill="#3e3e52"/></svg>