<svg viewBox="0 0 100 100" xmlns="http://www.w3.org/2000/svg"><g fill="#e9f0ff"><path d="m78 85a2 2 0 0 1 -2 2h-4a2 2 0 0 1 -2-2v-2h8z"/><path d="m30 85a2 2 0 0 1 -2 2h-4a2 2 0 0 1 -2-2v-2h8z"/><path d="m66 79h-32-12v-20h56v20z"/><circle cx="50" cy="31" r="18"/></g><path d="m68.08 63a6 6 0 1 0 6 6 6 6 0 0 0 -6-6zm0 8a2 2 0 1 1 2-2 2 2 0 0 1 -2 2zm-20.17-28.17-11.24-7.83 3.67-5.56 7.57 5.56 10.87-14 4.79 5.29zm-31.91-16.19v.36 8a2 2 0 0 1 -4 .36v-.36-8a2 2 0 0 1 4-.36zm42 44.36a2 2 0 0 1 -2 2h-12a2 2 0 1 1 0-4h12a2 2 0 0 1 2 2zm-26-8a6 6 0 1 0 6 6 6 6 0 0 0 -6-6zm0 8a2 2 0 1 1 2-2 2 2 0 0 1 -2 2zm49.38-29.8-.68-19.72a2.58 2.58 0 0 0 -2.57-2.48h-4a4 4 0 0 0 2.61 3.75l1.05 30.18a2 2 0 0 1 -1.93 2.07h-51.64a2 2 0 0 1 -2-2l1-27.4a9.4 9.4 0 0 1 .32-2.89 4 4 0 0 0 2.46-3.71h-4c-1.89.47-2.83 2.63-2.83 6.46l-.52 14.7q-.65 11.84-.65 14.84v30a6 6 0 0 0 6 6h4a6 6 0 0 0 6-6v-2h32v2a6 6 0 0 0 6 6h4a6 6 0 0 0 6-6v-30c0-1-.06-2.78-.17-5.31zm-51.38 43.8a2 2 0 0 1 -2 2h-4a2 2 0 0 1 -2-2v-2h8zm48 0a2 2 0 0 1 -2 2h-4a2 2 0 0 1 -2-2v-2h8zm-12-6h-44v-20h56v20zm22-52v8a2 2 0 0 1 -4 .36v-.36-8a2 2 0 0 1 4-.36z" fill="#3e3e52"/><path d="m50 9a22 22 0 1 0 22 22 22 22 0 0 0 -22-22zm0 40a18 18 0 1 1 18-18 18 18 0 0 1 -18 18z" fill="#3e3e52"/></svg>