<svg viewBox="0 0 100 100" xmlns="http://www.w3.org/2000/svg"><path d="m75.43 60.75a53.91 53.91 0 0 1 -14.71 19.91 51.55 51.55 0 0 1 -10.72 7.12 51.55 51.55 0 0 1 -10.72-7.12 53.77 53.77 0 0 1 -14.7-19.91 56.3 56.3 0 0 1 -4.58-23 57.23 57.23 0 0 1 1.33-12 33.77 33.77 0 0 0 15.79-2.89 35.21 35.21 0 0 0 12.88-9.64 35.16 35.16 0 0 0 12.89 9.64 33.7 33.7 0 0 0 15.78 2.89 57.23 57.23 0 0 1 1.33 12 56.62 56.62 0 0 1 -4.57 23z" fill="#e3fff2"/><path d="m82.16 23.13a2 2 0 0 0 -2.16-1.5 29.92 29.92 0 0 1 -15.5-2.43 31.57 31.57 0 0 1 -12.89-10.39 2 2 0 0 0 -3.22 0 31.57 31.57 0 0 1 -12.89 10.39 29.91 29.91 0 0 1 -15.5 2.43 2 2 0 0 0 -2.15 1.5 60.79 60.79 0 0 0 -1.85 14.57 60.55 60.55 0 0 0 4.9 24.63 57.76 57.76 0 0 0 15.79 21.38 55.16 55.16 0 0 0 12.46 8.1 2 2 0 0 0 1.7 0 55.16 55.16 0 0 0 12.46-8.1 57.76 57.76 0 0 0 15.79-21.38 60.55 60.55 0 0 0 4.9-24.63 60.72 60.72 0 0 0 -1.84-14.57zm-6.73 37.62a53.91 53.91 0 0 1 -14.71 19.91 51.55 51.55 0 0 1 -10.72 7.12 51.55 51.55 0 0 1 -10.72-7.12 53.77 53.77 0 0 1 -14.7-19.91 56.3 56.3 0 0 1 -4.58-23 57.23 57.23 0 0 1 1.33-12 33.77 33.77 0 0 0 15.79-2.89 35.21 35.21 0 0 0 12.88-9.64 35.16 35.16 0 0 0 12.89 9.64 33.7 33.7 0 0 0 15.78 2.89 57.23 57.23 0 0 1 1.33 12 56.62 56.62 0 0 1 -4.57 23zm-27.55-14a18.88 18.88 0 0 0 3.69 1.41 30.6 30.6 0 0 1 4.12 1.46 7.23 7.23 0 0 1 2.75 2.18 6 6 0 0 1 1.15 3.85 6.42 6.42 0 0 1 -2.07 5 9.43 9.43 0 0 1 -5.46 2.32v5h-4v-5a17.11 17.11 0 0 1 -4.72-1.28 15.19 15.19 0 0 1 -4-2.46l2.19-4.48a14.67 14.67 0 0 0 4.23 2.67 11.24 11.24 0 0 0 4.37 1 4.89 4.89 0 0 0 2.66-.62 2 2 0 0 0 .95-1.81 2 2 0 0 0 -.64-1.54 5.1 5.1 0 0 0 -1.63-1c-.66-.25-1.57-.54-2.72-.87a30.84 30.84 0 0 1 -4.08-1.38 7.22 7.22 0 0 1 -2.67-2.2 5.82 5.82 0 0 1 -1.15-3.78 6.3 6.3 0 0 1 2-4.74 9.31 9.31 0 0 1 5.29-2.37v-4.71h4v4.68a18.67 18.67 0 0 1 4 .9 14.74 14.74 0 0 1 3.4 1.67l-2.21 4.55a18.09 18.09 0 0 0 -4-1.83 12 12 0 0 0 -3.59-.67 4.16 4.16 0 0 0 -2.25.52 1.67 1.67 0 0 0 -.84 1.52 2.13 2.13 0 0 0 1.23 1.96z" fill="#3e3e52"/></svg>